HIERARCHY
ROOT Hips
{
	OFFSET 0.000000 0.000000 0.000000 
	CHANNELS 6 Xposition Yposition Zposition Zrotation Yrotation Xrotation
	JOINT LeftUpLeg
	{
		OFFSET 1.363060 -1.794630 0.839290 
		CHANNELS 3 Zrotation Yrotation Xrotation
		JOINT LeftLeg
		{
			OFFSET 2.448110 -6.726130 0.000000 
			CHANNELS 3 Zrotation Yrotation Xrotation
			JOINT LeftFoot
			{
				OFFSET 2.562200 -7.039590 0.000000 
				CHANNELS 3 Zrotation Yrotation Xrotation
				JOINT LeftToeBase
				{
					OFFSET 0.157640 -0.433110 2.322550 
					CHANNELS 3 Zrotation Yrotation Xrotation
					End Site
					{
						OFFSET 0.000000 0.000000 0.000000 
					}
				}
			}
		}
	}
	JOINT RightUpLeg
	{
		OFFSET -1.305520 -1.794630 0.839290 
		CHANNELS 3 Zrotation Yrotation Xrotation
		JOINT RightLeg
		{
			OFFSET -2.542530 -6.985550 0.000000 
			CHANNELS 3 Zrotation Yrotation Xrotation
			JOINT RightFoot
			{
				OFFSET -2.568260 -7.056230 0.000000 
				CHANNELS 3 Zrotation Yrotation Xrotation
				JOINT RightToeBase
				{
					OFFSET -0.164730 -0.452590 2.363150 
					CHANNELS 3 Zrotation Yrotation Xrotation
					End Site
					{
						OFFSET 0.000000 0.000000 0.000000 
					}
				}
			}
		}
	}
	JOINT Spine
	{
		OFFSET 0.028270 2.035590 -0.193380 
		CHANNELS 3 Zrotation Yrotation Xrotation
		JOINT Spine1
		{
			OFFSET 0.056720 2.048850 -0.042750 
			CHANNELS 3 Zrotation Yrotation Xrotation
			JOINT Neck1
			{
				OFFSET -0.054170 1.746240 0.172020 
				CHANNELS 3 Zrotation Yrotation Xrotation
				JOINT Head
				{
					OFFSET 0.104070 1.761360 -0.123970 
					CHANNELS 3 Zrotation Yrotation Xrotation
					End Site
					{
						OFFSET 0.000000 0.000000 0.000000 
					}
				}
			}
			JOINT LeftArm
			{
				OFFSET 3.362410 1.200890 -0.311210 
				CHANNELS 3 Zrotation Yrotation Xrotation
				JOINT LeftForeArm
				{
					OFFSET 4.983000 -0.000000 -0.000000 
					CHANNELS 3 Zrotation Yrotation Xrotation
					JOINT LeftHand
					{
						OFFSET 3.483560 -0.000000 -0.000000 
						CHANNELS 3 Zrotation Yrotation Xrotation
						JOINT LeftHandIndex1
						{
							OFFSET 0.715260 -0.000000 -0.000000 
							CHANNELS 3 Zrotation Yrotation Xrotation
							End Site
							{
								OFFSET 0.000000 0.000000 0.000000 
							}
						}
					}
				}
			}
			JOINT RightArm
			{
				OFFSET -3.136600 1.374050 -0.404650 
				CHANNELS 3 Zrotation Yrotation Xrotation
				JOINT RightForeArm
				{
					OFFSET -5.241900 -0.000000 -0.000000 
					CHANNELS 3 Zrotation Yrotation Xrotation
					JOINT RightHand
					{
						OFFSET -3.444170 -0.000000 -0.000000 
						CHANNELS 3 Zrotation Yrotation Xrotation
						JOINT RightHandIndex1
						{
							OFFSET -0.622530 -0.000000 -0.000000 
							CHANNELS 3 Zrotation Yrotation Xrotation
							End Site
							{
								OFFSET 0.000000 0.000000 0.000000 
							}
						}
					}
				}
			}
		}
	}
}
MOTION
Frames: 6
Frame Time: 0.041667
6.716685 17.816185 5.396238 75.879773 -89.522700 -76.935513 -24.605798 -2.601333 8.495941 0.157219 5.647346 14.636559 0.698793 -2.239858 -4.265406 0.002200 0.302300 0.830700 4.672673 9.774340 -90.080020 -15.512354 -19.999984 77.288211 -38.420178 7.201676 -153.520865 -1.299700 -7.222700 20.376800 1.483930 -6.211809 -4.651650 7.929656 -3.081620 -4.310259 5.751896 -1.086952 10.408063 2.381200 -0.303200 9.012000 -86.243162 -41.049132 41.685596 40.331849 -52.687738 -15.918668 0.050544 2.069539 5.459705 -7.125000 0.000000 0.000000 76.394678 -25.801718 -10.792260 -4.756784 12.594494 -0.512918 -0.406527 0.607126 25.138307 7.125000 0.000000 0.000000 
6.589796 17.809816 5.383101 77.288729 -89.382486 -78.112601 -24.738811 -2.565050 8.683327 0.161793 5.653613 14.661645 0.717197 -2.354456 -4.326786 0.000500 0.137800 0.378500 4.727740 9.864402 -89.813937 -16.649211 -20.147546 79.161846 -36.928818 -6.094100 -149.182614 -1.263100 -7.124200 20.083800 1.477973 -6.256980 -4.675057 7.953921 -3.102427 -4.316483 5.750898 -1.057839 10.335594 2.379700 -0.287700 8.999800 -86.149630 -41.343744 41.465680 40.664285 -52.853191 -16.136089 0.047038 2.063556 5.578592 -7.125000 0.000000 0.000000 76.442065 -25.891037 -11.277420 -4.705285 12.482619 -0.504596 -0.401450 0.604308 25.622712 7.125000 0.000000 0.000000 
6.462309 17.802650 5.369467 78.895027 -89.217717 -79.462631 -24.884446 -2.512817 8.852639 0.163923 5.650522 14.661109 0.737759 -2.489626 -4.357522 0.000000 -0.035400 -0.097200 4.762707 9.930602 -89.392618 -17.727456 -20.262656 81.377961 -36.880892 -19.217789 -145.019304 -1.230600 -7.035100 19.819400 1.469084 -6.299396 -4.699958 7.986933 -3.122051 -4.309879 5.749141 -1.030904 10.256626 2.378400 -0.273400 8.986600 -86.072871 -41.576046 41.260238 40.975250 -53.008859 -16.341281 0.045332 2.058574 5.700817 -7.125000 0.000000 0.000000 76.522373 -25.937510 -11.556748 -4.682683 12.429161 -0.503227 -0.398677 0.599560 25.868163 7.125000 0.000000 0.000000 
6.333927 17.794688 5.355036 80.494377 -89.037533 -80.777709 -25.029241 -2.449087 9.004792 0.163958 5.639307 14.637661 0.761711 -2.652070 -4.362555 0.001100 -0.213300 -0.586100 4.788942 9.979235 -88.821861 -18.564277 -20.329904 83.659120 -38.551024 -31.868835 -140.073522 -1.202700 -6.957800 19.590400 1.457696 -6.336509 -4.728619 8.024946 -3.138685 -4.296177 5.747376 -1.008294 10.171116 2.376700 -0.261300 8.969000 -86.013333 -41.745624 41.083650 41.256301 -53.150121 -16.527276 0.044531 2.054368 5.809445 -7.125000 0.000000 0.000000 76.638142 -25.953723 -11.631628 -4.687209 12.431709 -0.508358 -0.397693 0.593428 25.875817 7.125000 0.000000 0.000000 
6.204350 17.785731 5.340009 82.033701 -88.851404 -82.008895 -25.161931 -2.376136 9.140119 0.161639 5.620203 14.592004 0.788795 -2.841225 -4.343049 0.004000 -0.408800 -1.123200 4.828820 10.017455 -88.110779 -19.056699 -20.359489 85.737066 -42.433761 -43.848133 -133.133933 -1.178200 -6.889200 19.387600 1.444435 -6.366858 -4.760381 8.062338 -3.152137 -4.270252 5.745116 -0.990732 10.078671 2.374000 -0.252000 8.945900 -85.971117 -41.839564 40.936407 41.517212 -53.282988 -16.699286 0.043956 2.050809 5.894563 -7.125000 0.000000 0.000000 76.789596 -25.942535 -11.490072 -4.718506 12.490199 -0.519393 -0.398753 0.586329 25.644667 7.125000 0.000000 0.000000 
6.073082 17.775978 5.323986 83.392756 -88.672058 -83.035294 -25.267312 -2.300151 9.260420 0.157325 5.594112 14.526354 0.819320 -3.059304 -4.300899 0.009000 -0.613700 -1.686500 4.905920 10.047109 -87.262511 -19.069821 -20.369335 87.379651 -49.633622 -54.870605 -122.186270 -1.168800 -6.862500 19.308700 1.431541 -6.388929 -4.796795 8.099453 -3.161061 -4.238631 5.742062 -0.979921 9.984530 2.370300 -0.246200 8.918600 -85.947180 -41.838651 40.825304 41.773363 -53.415811 -16.865469 0.042459 2.047891 5.946313 -7.125000 0.000000 0.000000 76.969740 -25.914291 -11.138645 -4.774618 12.601054 -0.536114 -0.401599 0.578655 25.189635 7.125000 0.000000 0.000000 
